<?xml version="1.0" standalone="no"?>
<!DOCTYPE svg PUBLIC "-//W3C//DTD SVG 20010904//EN"
 "http://www.w3.org/TR/2001/REC-SVG-20010904/DTD/svg10.dtd">
<svg version="1.0" xmlns="http://www.w3.org/2000/svg"
 width="500.000000pt" height="500.000000pt" viewBox="0 0 500.000000 500.000000"
 preserveAspectRatio="xMidYMid meet">
<metadata>
Created by potrace 1.14, written by Peter Selinger 2001-2017
</metadata>
<g transform="translate(0.000000,500.000000) scale(0.100000,-0.100000)"
fill="#000000" stroke="none">
<path d="M0 2500 l0 -2500 2500 0 2500 0 0 2500 0 2500 -2500 0 -2500 0 0
-2500z m2501 1036 c166 -46 282 -154 330 -307 10 -33 19 -77 19 -96 0 -30 -3
-34 -17 -28 -41 17 -114 16 -208 -3 -55 -12 -117 -24 -137 -27 -25 -4 -38 -11
-38 -22 0 -13 13 -14 93 -9 97 7 210 21 264 32 l33 6 -16 -44 c-8 -25 -28 -57
-43 -72 -25 -24 -32 -26 -51 -16 -18 10 -31 10 -60 0 -22 -7 -56 -10 -86 -6
-27 4 -64 6 -81 6 -51 -1 -160 -1 -190 0 -16 1 -54 -2 -85 -6 l-58 -6 0 51 0
51 130 0 c111 0 130 2 130 15 0 13 -7 15 -37 9 l-38 -6 35 24 35 24 0 224 0
225 -45 0 c-25 0 -51 4 -58 8 -19 13 44 57 80 57 15 0 29 6 30 13 1 6 3 -9 5
-34 l4 -46 60 -17z m-81 -224 l0 -199 -64 -11 c-88 -17 -178 -15 -202 3 -15
11 -16 14 -4 15 44 1 172 177 236 324 16 36 30 66 31 66 2 0 3 -89 3 -198z
m-445 -833 l-7 -119 66 0 66 0 0 -45 0 -45 -110 0 -110 0 0 163 c0 90 2 166 4
168 3 2 26 3 52 1 l46 -4 -7 -119z m240 0 l-7 -119 66 0 66 0 0 -45 0 -45
-110 0 -110 0 0 163 c0 90 2 166 4 168 3 2 26 3 52 1 l46 -4 -7 -119z m245
-39 l0 -170 -50 0 -50 0 0 139 c0 76 3 153 6 170 6 29 9 31 50 31 l44 0 0
-170z m636 150 l104 0 0 -40 0 -40 -120 0 c-119 0 -120 0 -120 -24 0 -20 6
-24 46 -30 26 -3 69 -6 95 -6 42 0 49 -3 49 -20 0 -19 -7 -20 -90 -20 l-90 0
0 -30 0 -30 105 0 c58 0 105 -4 105 -9 0 -5 3 -23 6 -40 l7 -31 -161 0 -160 0
-4 158 c-2 86 -2 161 0 166 3 5 32 6 65 2 33 -3 107 -6 163 -6z m440 -27 c-3
-21 -6 -62 -6 -90 l0 -53 -36 0 -35 0 20 -27 c11 -16 37 -49 57 -75 l36 -48
-54 0 -54 0 -55 75 c-39 54 -60 75 -76 75 -22 0 -23 -4 -23 -75 l0 -75 -45 0
-44 0 -3 161 c-2 88 -1 163 1 165 2 2 76 4 164 4 l160 0 -7 -37z m-2038 -10
l3 -31 -115 5 -116 6 0 -87 0 -86 65 0 c58 0 65 2 65 20 0 15 -7 20 -25 20
-18 0 -25 5 -25 20 0 18 7 20 75 20 l75 0 0 -85 0 -85 -160 0 -160 0 0 123 c0
67 -3 139 -6 160 l-7 38 164 -3 164 -3 3 -32z m126 -24 c3 -34 6 -82 6 -105
l0 -44 64 0 65 0 -6 105 -6 105 56 0 57 0 0 -160 0 -160 -164 0 c-140 0 -165
2 -170 16 -3 9 -6 81 -6 160 l0 144 49 0 48 0 7 -61z m1001 -40 c21 -55 41
-97 46 -92 4 4 23 46 41 93 l34 85 47 3 c26 2 47 0 47 -5 0 -4 -26 -74 -57
-155 l-58 -148 -51 0 c-41 0 -53 4 -57 18 -2 9 -34 81 -70 160 l-66 142 53 0
53 0 38 -101z m-517 -399 l62 0 0 -165 0 -165 -45 0 -45 0 0 69 0 69 -31 6
c-17 3 -47 6 -65 6 l-34 0 0 -75 0 -75 -56 0 -57 0 6 68 c4 37 7 114 7 171 l0
104 98 -6 c53 -4 125 -7 160 -7z m913 -121 l-3 -119 66 0 66 0 0 -45 0 -45
-110 0 -110 0 0 168 0 167 47 -3 48 -4 -4 -119z m-1241 32 l0 -90 -36 -3 -35
-3 56 -72 56 -73 -54 0 -55 0 -56 75 c-37 49 -63 75 -76 75 -18 0 -20 -7 -20
-75 l0 -75 -45 0 -45 0 0 83 c0 45 -3 119 -7 165 l-6 82 162 0 161 0 0 -89z
m1026 79 l104 0 0 -40 0 -40 -115 0 c-114 0 -115 0 -115 -24 0 -19 6 -24 38
-30 20 -3 61 -6 90 -6 45 0 52 -3 52 -20 0 -19 -7 -20 -90 -20 l-90 0 0 -30 0
-29 108 -3 107 -3 3 -37 3 -38 -160 0 -161 0 0 166 0 167 61 -7 c34 -3 109 -6
165 -6z m590 0 l104 0 0 -40 0 -40 -115 0 c-114 0 -115 0 -115 -24 0 -19 6
-24 38 -30 20 -3 61 -6 90 -6 45 0 52 -3 52 -20 0 -19 -7 -20 -90 -20 l-90 0
0 -30 0 -29 108 -3 107 -3 3 -37 3 -38 -160 0 -161 0 0 166 0 167 61 -7 c34
-3 109 -6 165 -6z m444 -42 c0 -29 -3 -70 -6 -90 -6 -35 -9 -38 -41 -38 l-35
0 49 -62 c72 -92 72 -88 11 -88 l-53 1 -54 74 c-41 56 -61 75 -78 75 -22 0
-23 -3 -23 -75 l0 -75 -39 0 c-37 0 -39 2 -45 38 -3 20 -6 94 -6 165 l0 127
160 0 160 0 0 -52z m-2402 -5 l-3 -47 -52 3 -53 2 0 -115 0 -116 -45 0 -45 0
0 114 c0 127 1 126 -82 126 -38 0 -38 0 -38 40 l0 40 161 0 160 0 -3 -47z
m898 -53 c21 -55 41 -100 45 -100 3 0 21 42 41 93 l35 92 46 3 c33 2 47 -1 47
-10 0 -7 -26 -77 -57 -156 l-57 -143 -49 3 -50 3 -63 139 c-87 190 -85 176
-26 176 l50 0 38 -100z m-581 -552 l14 -33 15 35 c18 42 21 30 4 -17 -7 -18
-16 -33 -20 -33 -4 0 -8 2 -8 4 0 2 -7 20 -15 40 -8 20 -13 36 -10 36 3 0 12
-15 20 -32z m105 -8 c0 -22 -4 -40 -10 -40 -5 0 -10 18 -10 40 0 22 5 40 10
40 6 0 10 -18 10 -40z m102 0 c9 -22 12 -40 7 -40 -5 0 -9 5 -9 10 0 6 -11 10
-25 10 -14 0 -25 -5 -25 -12 0 -6 -3 -9 -6 -6 -7 8 23 78 33 78 4 0 16 -18 25
-40z m96 33 c-30 -5 -44 -29 -27 -49 14 -17 36 -18 42 -1 2 7 3 6 3 -3 -2 -19
-33 -25 -51 -10 -32 27 -10 71 35 69 l25 -2 -27 -4z m110 0 c-34 -5 -37 -22
-5 -24 l22 -2 -22 -4 c-32 -6 -29 -31 5 -36 25 -4 25 -4 -5 -6 -32 -1 -33 0
-33 39 0 39 1 40 33 39 30 -2 30 -2 5 -6z m95 -19 l13 -25 12 25 c18 39 32 31
31 -16 l-2 -43 -6 35 -6 34 -13 -29 c-13 -29 -14 -29 -28 -10 -8 10 -15 24
-15 29 -1 6 -5 -5 -9 -24 l-7 -35 -2 43 c-1 47 12 54 32 16z m195 19 c-34 -5
-37 -22 -5 -24 l22 -2 -22 -4 c-32 -6 -29 -31 5 -36 25 -4 25 -4 -5 -6 -32 -1
-33 0 -33 39 0 39 1 40 33 39 30 -2 30 -2 5 -6z m160 0 c-13 -3 -18 -16 -20
-41 l-1 -37 -4 35 c-3 19 -10 38 -16 42 -7 4 4 7 23 7 19 -1 27 -3 18 -6z m84
-61 c12 -2 19 5 24 25 10 46 12 50 13 17 1 -37 -20 -58 -49 -49 -16 5 -20 14
-19 43 l2 37 6 -35 c4 -22 12 -36 23 -38z m144 53 c4 -8 1 -21 -5 -28 -8 -10
-7 -17 1 -25 8 -8 9 -12 1 -12 -6 0 -13 7 -17 15 -3 8 -10 15 -16 15 -5 0 -10
-7 -10 -15 0 -8 -4 -15 -10 -15 -5 0 -10 18 -10 40 0 38 2 40 30 40 18 0 33
-6 36 -15z m64 -25 c0 -22 -4 -40 -10 -40 -5 0 -10 18 -10 40 0 22 5 40 10 40
6 0 10 -18 10 -40z m83 33 c-29 -5 -30 -20 -2 -28 12 -4 19 -14 17 -23 -4 -20
-36 -28 -51 -13 -7 7 -4 8 10 5 31 -8 36 11 8 24 -40 18 -31 43 14 41 24 -2
24 -2 4 -6z m90 -19 l13 -25 12 25 c18 39 32 31 31 -16 l-2 -43 -6 35 -6 34
-13 -29 c-13 -29 -14 -29 -28 -10 -8 10 -15 24 -15 29 -1 6 -5 -5 -9 -24 l-7
-35 -2 43 c-1 47 12 54 32 16z m172 -8 c0 -36 -27 -56 -52 -40 -40 25 -20 77
26 72 21 -2 26 -8 26 -32z"/>
<path d="M2441 3425 c1 -66 4 -160 8 -210 l6 -90 33 47 c68 99 59 216 -27 343
l-21 30 1 -120z"/>
<path d="M3310 2505 c0 -23 3 -25 50 -25 47 0 50 2 50 25 0 23 -3 25 -50 25
-47 0 -50 -2 -50 -25z"/>
<path d="M1950 2003 l0 -33 65 0 65 0 0 29 c0 29 -1 29 -65 33 l-65 3 0 -32z"/>
<path d="M1550 1995 c0 -24 3 -25 55 -25 52 0 55 1 55 25 0 24 -3 25 -55 25
-52 0 -55 -1 -55 -25z"/>
<path d="M3610 1995 c0 -23 3 -25 50 -25 47 0 50 2 50 25 0 23 -3 25 -50 25
-47 0 -50 -2 -50 -25z"/>
<path d="M1926 1433 c-11 -11 -6 -23 9 -23 8 0 15 4 15 9 0 13 -16 22 -24 14z"/>
<path d="M2800 1436 c0 -10 9 -16 21 -16 24 0 21 23 -4 28 -10 2 -17 -3 -17
-12z"/>
<path d="M3194 1435 c-4 -9 0 -23 9 -32 21 -21 49 -9 45 19 -4 28 -45 38 -54
13z"/>
</g>
</svg>
